<?xml version="1.0" standalone="no"?>
<!DOCTYPE svg PUBLIC "-//W3C//DTD SVG 20010904//EN"
 "http://www.w3.org/TR/2001/REC-SVG-20010904/DTD/svg10.dtd">
<svg version="1.0" xmlns="http://www.w3.org/2000/svg"
 width="280.000000pt" height="280.000000pt" viewBox="0 0 280.000000 280.000000"
 preserveAspectRatio="xMidYMid meet">
<metadata>
Created by potrace 1.11, written by Peter Selinger 2001-2013
</metadata>
<g transform="translate(0.000000,280.000000) scale(0.100000,-0.100000)"
fill="#000000" stroke="none">
<path d="M83 2780 c-14 -6 -24 -21 -28 -42 -3 -18 -4 -632 -3 -1365 2 -1077 5
-1334 16 -1345 20 -20 2630 -24 2657 -4 20 14 20 36 20 1376 0 1336 0 1362
-19 1376 -17 12 -212 14 -1320 13 -729 0 -1311 -4 -1323 -9z m2475 -202 c17
-17 17 -2359 0 -2376 -17 -17 -2279 -17 -2296 0 -17 17 -17 2359 0 2376 17 17
2279 17 2296 0z"/>
<path d="M1503 2490 c-28 -12 -36 -53 -32 -169 3 -56 9 -95 17 -103 20 -20
830 -24 857 -4 18 13 20 26 20 136 0 109 -2 123 -19 136 -16 12 -89 14 -420
13 -221 0 -411 -4 -423 -9z"/>
<path d="M290 2480 c0 -5 16 -10 35 -10 42 0 90 -22 99 -45 3 -9 6 -201 6
-426 l0 -410 -25 -24 c-18 -19 -35 -25 -70 -25 -25 0 -45 -4 -45 -10 0 -6 77
-10 210 -10 133 0 210 4 210 10 0 6 -16 10 -35 10 -47 0 -93 25 -100 53 -3 12
-4 109 -3 215 l3 193 193 -188 c154 -150 193 -193 192 -214 0 -31 -28 -59 -58
-59 -12 0 -22 -4 -22 -10 0 -6 82 -10 225 -10 143 0 225 4 225 10 0 6 -10 10
-23 10 -61 0 -131 54 -342 261 -116 115 -224 218 -239 230 -15 12 -26 27 -24
34 2 7 84 91 183 187 175 169 241 218 293 218 12 0 22 5 22 10 0 6 -63 10
-170 10 -107 0 -170 -4 -170 -10 0 -5 13 -10 29 -10 33 0 61 -22 61 -49 0 -36
-62 -111 -204 -246 -81 -77 -154 -144 -162 -148 -12 -7 -14 21 -14 187 0 107
3 202 6 211 9 23 57 45 99 45 19 0 35 5 35 10 0 6 -77 10 -210 10 -133 0 -210
-4 -210 -10z"/>
<path d="M1503 1990 c-28 -12 -36 -53 -32 -169 3 -56 9 -95 17 -103 20 -20
830 -24 857 -4 18 13 20 26 20 136 0 109 -2 123 -19 136 -16 12 -89 14 -420
13 -221 0 -411 -4 -423 -9z"/>
<path d="M403 1390 c-28 -12 -36 -53 -32 -169 3 -56 9 -95 17 -103 20 -20
2030 -24 2057 -4 18 13 20 27 20 136 0 109 -2 123 -19 136 -17 12 -171 14
-1020 13 -555 0 -1011 -4 -1023 -9z"/>
<path d="M403 790 c-28 -12 -36 -53 -32 -169 3 -56 9 -95 17 -103 20 -20 2030
-24 2057 -4 18 13 20 27 20 136 0 109 -2 123 -19 136 -17 12 -171 14 -1020 13
-555 0 -1011 -4 -1023 -9z"/>
</g>
</svg>
